<?xml version="1.0" encoding="iso-8859-1"?>
<!-- Uploaded to: SVG Repo, www.svgrepo.com, Generator: SVG Repo Mixer Tools -->
<svg version="1.1" id="Layer_1" xmlns="http://www.w3.org/2000/svg" xmlns:xlink="http://www.w3.org/1999/xlink" 
	 viewBox="0 0 512 512" xml:space="preserve">
<path style="fill:#E0315B;" d="M288.681,16.423L256,138.894c36.098,0,65.362-29.264,65.362-65.362c0-36.099,0-65.362,0-65.362
	C309.531,8.17,298.405,11.166,288.681,16.423z"/>
<path style="fill:#EA5A7D;" d="M288.681,73.532V16.423C273.372,24.7,261.549,38.597,256,55.361
	C246.927,27.95,221.094,8.17,190.638,8.17c0,0,0,29.262,0,65.362c0,36.098,29.264,65.362,65.362,65.362
	C274.05,138.894,288.681,109.63,288.681,73.532z"/>
<path style="fill:#008CCB;" d="M284.303,226.043c33.671,11.402,71.895,8.807,105.101-10.365
	c33.206-19.172,54.565-50.976,61.526-85.837l-94.207,29.233L284.303,226.043z"/>
<path style="fill:#74C8EE;" d="M345.829,140.205c-33.206,19.172-54.565,50.976-61.526,85.837l166.627-96.203
	C417.258,118.439,379.035,121.032,345.829,140.205z"/>
<path style="fill:#008CCB;" d="M61.071,129.84c6.961,34.862,28.32,66.666,61.526,85.837c33.206,19.173,71.429,21.767,105.101,10.365
	l-72.42-66.97L61.071,129.84z"/>
<path style="fill:#74C8EE;" d="M166.171,140.205c-33.206-19.173-71.429-21.767-105.101-10.365l166.627,96.203
	C220.736,191.181,199.377,159.377,166.171,140.205z"/>
<polygon style="fill:#E64A55;" points="150.588,313.191 156.356,362.213 305.021,384 305.021,503.83 337.702,503.83 
	361.412,313.191 "/>
<g>
	<polygon style="fill:#ED6350;" points="156.356,362.213 174.298,503.83 305.021,503.83 322.963,362.213 	"/>
	<polygon style="fill:#ED6350;" points="343.149,275.064 321.362,302.298 343.149,329.532 375.83,329.532 375.83,275.064 	"/>
</g>
<rect x="136.17" y="275.064" style="fill:#F37C4A;" width="206.979" height="54.468"/>
<path d="M453.55,122.102c-14.173-4.8-28.928-7.233-43.854-7.233c-23.763,0-47.262,6.315-67.952,18.261
	c-32.838,18.958-56.243,50.758-64.669,87.651l-12.905,7.451v-81.633c36.714-4.079,65.362-35.284,65.362-73.067V8.17
	c0-4.513-3.657-8.17-8.17-8.17C294.306,0,269.827,14.019,256,36.23C242.173,14.019,217.694,0,190.638,0
	c-4.513,0-8.17,3.657-8.17,8.17v65.362c0,37.783,28.648,68.988,65.362,73.067v81.633l-12.905-7.451
	c-8.425-36.893-31.831-68.693-64.669-87.651c-20.69-11.946-44.188-18.261-67.952-18.261c-14.926,0-29.682,2.433-43.854,7.233
	c-3.888,1.316-6.196,5.313-5.391,9.338c7.678,38.448,31.534,71.73,65.453,91.312c20.69,11.946,44.188,18.261,67.952,18.261
	c13.673,0,27.195-2.065,40.263-6.098L247.83,247.1v17.07c0,0.956,0.173,1.87,0.475,2.723H136.17c-4.513,0-8.17,3.657-8.17,8.17
	v54.468c0,4.513,3.657,8.17,8.17,8.17h9.128l20.893,167.142c0.512,4.088,3.987,7.156,8.107,7.156h163.404
	c4.12,0,7.596-3.068,8.107-7.156l20.893-167.142h9.128c4.513,0,8.17-3.657,8.17-8.17v-54.468c0-4.513-3.657-8.17-8.17-8.17H263.695
	c0.302-0.853,0.475-1.767,0.475-2.723V247.1l21.103-12.185c13.068,4.032,26.591,6.098,40.263,6.098
	c23.763,0,47.262-6.315,67.952-18.261c33.919-19.583,57.775-52.865,65.453-91.312C459.746,127.415,457.438,123.418,453.55,122.102z
	 M162.086,147.281c24.173,13.957,42.536,35.821,52.235,61.606L82.6,132.836c6.499-1.08,13.083-1.626,19.704-1.626
	C123.205,131.209,143.875,136.767,162.086,147.281z M186.464,224.673c-20.9,0-41.571-5.558-59.782-16.071
	c-24.173-13.957-42.536-35.821-52.235-61.604l131.721,76.049C199.668,224.126,193.085,224.673,186.464,224.673z M367.66,321.362
	H217.872c-4.513,0-8.17,3.657-8.17,8.17c0,4.513,3.657,8.17,8.17,8.17h132.362L330.49,495.66H181.511l-19.745-157.957h23.426
	c4.513,0,8.17-3.657,8.17-8.17c0-4.513-3.657-8.17-8.17-8.17h-40.851v-38.128H367.66V321.362z M198.809,73.532V16.887
	c22.763,3.064,42.069,18.787,49.435,41.042c1.108,3.344,4.233,5.604,7.756,5.604c3.523,0,6.649-2.258,7.756-5.604
	c7.366-22.255,26.672-37.976,49.435-41.042v56.645c0,31.535-25.657,57.191-57.191,57.191S198.809,105.067,198.809,73.532z
	 M349.914,147.281c18.211-10.513,38.882-16.071,59.782-16.071c6.621,0,13.204,0.547,19.704,1.626l-131.721,76.051
	C307.378,183.102,325.741,161.238,349.914,147.281z M385.318,208.602c-18.211,10.513-38.882,16.071-59.782,16.071
	c-6.621,0-13.204-0.547-19.703-1.626l131.721-76.049C427.855,172.78,409.491,194.646,385.318,208.602z"/>
<circle cx="210.323" cy="437.923" r="8.17"/>
<circle cx="243.004" cy="454.264" r="8.17"/>
</svg>